<?xml version="1.0" encoding="utf-8"?>
<!-- Generator: Adobe Illustrator 25.1.0, SVG Export Plug-In . SVG Version: 6.00 Build 0)  -->
<svg version="1.1" id="Capa_1" xmlns="http://www.w3.org/2000/svg" xmlns:xlink="http://www.w3.org/1999/xlink" x="0px" y="0px"
	 viewBox="0 0 34 34" style="enable-background:new 0 0 34 34;" xml:space="preserve">
<g>
	<path d="M25.8,12.7c0,1.4-1.1,2.5-2.5,2.5c-1.4,0-2.5-1.1-2.5-2.5s1.1-2.5,2.5-2.5C24.7,10.2,25.8,11.3,25.8,12.7z M10.7,10.2
		c-1.4,0-2.5,1.1-2.5,2.5s1.1,2.5,2.5,2.5c1.4,0,2.5-1.1,2.5-2.5S12,10.2,10.7,10.2z M23.8,18.7c-1.5,2.2-4.1,3.6-6.8,3.6
		c-2.7,0-5.2-1.3-6.8-3.6c-0.5-0.7-1.4-0.9-2.1-0.4c-0.7,0.5-0.9,1.4-0.4,2.1c2.1,3,5.6,4.9,9.2,4.9s7.1-1.8,9.2-4.9
		c0.5-0.7,0.3-1.6-0.4-2.1C25.6,18.1,25.3,18,25,18C24.5,18,24.1,18.2,23.8,18.7z M34,26.8V7.2c0-4-3.2-7.2-7.2-7.2H7.2
		C3.2,0,0,3.2,0,7.2v19.7c0,4,3.2,7.2,7.2,7.2h19.7C30.8,34,34,30.8,34,26.8z M26.8,4C28.6,4,30,5.4,30,7.2v19.7
		c0,1.8-1.4,3.2-3.2,3.2H7.2C5.4,30,4,28.6,4,26.8V7.2C4,5.4,5.4,4,7.2,4L26.8,4L26.8,4z"/>
</g>
</svg>
