<svg height="397pt" viewBox="0 0 397.90936 397" width="397pt" xmlns="http://www.w3.org/2000/svg"><path d="m309.394531 256.53125c-11.089843-11.066406-28.828125-11.742188-40.730469-1.554688l-19.835937-19.835937c22.4375-25.742187 34.785156-58.746094 34.753906-92.894531 0-78.183594-63.605469-141.792969-141.789062-141.792969-78.183594 0-141.792969 63.609375-141.792969 141.792969 0 78.1875 63.605469 141.792968 141.792969 141.792968 34.148437.027344 67.148437-12.320312 92.894531-34.753906l19.832031 19.832032c-10.183593 11.90625-9.507812 29.640624 1.558594 40.734374l85.582031 85.582032c3.90625 3.90625 10.238282 3.90625 14.140625 0l39.179688-39.175782c3.90625-3.90625 3.90625-10.238281 0-14.144531zm-167.597656 7.507812c-67.265625 0-121.796875-54.527343-121.796875-121.789062-.003906-67.265625 54.523438-121.796875 121.789062-121.796875 67.265626 0 121.792969 54.527344 121.792969 121.792969-.074219 67.230468-54.558593 121.714844-121.789062 121.792968zm0 0"/></svg>