<svg height="403pt" viewBox="-6 0 403 403.00001" width="403pt" xmlns="http://www.w3.org/2000/svg"><path d="m79.640625 279.027344h231v123.972656h-231zm0 0"/><path d="m260.640625 10c-.007813-5.519531-4.480469-9.9921875-10-10h-141c-5.523437.0078125-9.996094 4.480469-10 10v99.945312h161zm0 0"/><path d="m280.640625 18.582031v101.363281c0 5.523438-4.480469 10-10 10h-181c-5.523437 0-10-4.476562-10-10v-101.363281h-49.640625c-16.5625.019531-29.9804688 13.441407-30 30v324.417969c.0195312 16.5625 13.4375 29.980469 30 30h29.640625v-133.972656c0-5.523438 4.476563-10 10-10h251c5.519531 0 10 4.476562 10 10v133.972656h29.636719c16.5625-.019531 29.980468-13.4375 30-30v-255.152344l-82.738282-99.265625zm0 0"/></svg>