<svg height="412pt" viewBox="0 -22 412.28002 412" width="412pt" xmlns="http://www.w3.org/2000/svg"><path d="m409.777344 191.703125-40.128906-87.976563c-8.816407-19.25-28.03125-31.605468-49.203126-31.636718h-25.554687c-5.519531 0-10 4.476562-10 10 0 5.523437 4.480469 10 10 10h25.558594c13.339843.023437 25.445312 7.808594 31 19.9375l34.796875 76.296875h-89.019532c-3.898437 0-7.445312 2.269531-9.078124 5.8125l-17.242188 37.351562c-5.585938 12.054688-17.652344 19.777344-30.9375 19.800781h-69.515625c-13.285156-.023437-25.347656-7.746093-30.9375-19.800781l-17.238281-37.351562c-1.636719-3.542969-5.179688-5.8125-9.082032-5.8125h-85.894531l42.15625-78.304688c5.933594-11.046875 17.460938-17.933593 30-17.925781h17.925781c5.523438 0 10-4.476562 10-10s-4.476562-10-10-10h-17.921874c-19.902344-.015625-38.195313 10.914062-47.613282 28.445312l-48.746094 90.542969c-1.984374 1.886719-3.10546825 4.503907-3.101562 7.238281 0 .175782 0 .351563.015625.523438-.01171875.171875-.015625.347656-.015625.519531v92.660157c.046875 42.019531 34.097656 76.070312 76.113281 76.117187h260.050781c42.019532-.046875 76.070313-34.097656 76.117188-76.113281v-92.664063c0-.171875 0-.347656-.015625-.519531.007813-.171875.015625-.347656.015625-.523438.003906-2.4375-.886719-4.792968-2.503906-6.617187zm0 0"/><path d="m145.074219 122.558594 54.777343 44.308594c3.691407 2.988281 8.972657 2.96875 12.636719-.046876l53.917969-44.308593c4.265625-3.507813 4.882812-9.808594 1.375-14.078125-3.507812-4.265625-9.808594-4.882813-14.078125-1.375l-37.5625 30.875v-127.792969c0-5.523437-4.476563-10-10-10s-10 4.476563-10 10v128l-38.488281-31.128906c-2.769532-2.296875-6.5625-2.925781-9.929688-1.648438-3.367187 1.277344-5.785156 4.269531-6.332031 7.828125s.859375 7.136719 3.683594 9.367188zm0 0"/></svg>