<svg height="412pt" viewBox="0 -12 412.28102 412" width="412pt" xmlns="http://www.w3.org/2000/svg"><path d="m412.28125 218.320312c.003906-2.4375-.886719-4.789062-2.5-6.617187l-40.132812-87.976563c-8.8125-19.25-28.027344-31.605468-49.199219-31.632812h-25.558594c-5.519531 0-10 4.476562-10 10 0 5.519531 4.480469 10 10 10h25.558594c13.339843.019531 25.445312 7.804688 31 19.933594l34.796875 76.300781h-89.019532c-3.898437 0-7.445312 2.265625-9.078124 5.808594l-17.242188 37.355469c-5.585938 12.050781-17.652344 19.773437-30.9375 19.796874h-69.515625c-13.285156-.023437-25.347656-7.746093-30.9375-19.796874l-17.238281-37.355469c-1.636719-3.542969-5.179688-5.808594-9.082032-5.808594h-85.894531l42.15625-78.308594c5.933594-11.042969 17.460938-17.933593 30-17.921875h17.925781c5.523438 0 10-4.480468 10-10 0-5.523437-4.476562-10-10-10h-17.921874c-19.902344-.019531-38.195313 10.910156-47.613282 28.441406l-48.746094 90.542969c-1.984374 1.886719-3.10546825 4.503907-3.101562 7.238281 0 .175782 0 .351563.015625.523438-.01171875.175781-.015625.347656-.015625.519531v92.664063c.046875 42.015625 34.097656 76.066406 76.113281 76.113281h260.050781c42.019532-.046875 76.070313-34.097656 76.117188-76.113281v-92.664063c0-.171875 0-.34375-.015625-.519531.011719-.171875.015625-.347656.015625-.523438zm0 0"/><path d="m151.371094 64.449219c2.285156.003906 4.503906-.78125 6.28125-2.222657l38.488281-31.132812v128c0 5.519531 4.476563 10 10 10s10-4.480469 10-10v-127.789062l37.5625 30.871093c4.269531 3.507813 10.570313 2.890625 14.078125-1.375s2.890625-10.566406-1.375-14.074219l-53.917969-44.3125c-3.664062-3.011718-8.945312-3.035156-12.636719-.046874l-54.777343 44.308593c-3.292969 2.667969-4.550781 7.117188-3.132813 11.113281 1.414063 3.996094 5.191406 6.664063 9.429688 6.660157zm0 0"/></svg>