<svg height="445pt" viewBox="0 -14 445.066 445" width="445pt" xmlns="http://www.w3.org/2000/svg"><path d="m216.847656 53.253906c0 6.515625-5.28125 11.800782-11.800781 11.800782-6.515625 0-11.800781-5.285157-11.800781-11.800782 0-6.519531 5.285156-11.800781 11.800781-11.800781 6.519531 0 11.800781 5.28125 11.800781 11.800781zm0 0"/><path d="m130.25 41.453125c-6.515625 0-11.800781 5.28125-11.800781 11.800781 0 6.515625 5.285156 11.800782 11.800781 11.800782 6.519531 0 11.800781-5.285157 11.800781-11.800782-.007812-6.515625-5.285156-11.792968-11.800781-11.800781zm0 0"/><path d="m415.066406.03125h-385.066406c-16.5625.0195312-29.9804688 13.441406-30 30v76.441406h445.066406v-76.441406c-.019531-16.558594-13.441406-29.9804688-30-30zm-359.613281 85.023438c-17.5625 0-31.800781-14.238282-31.800781-31.800782s14.238281-31.800781 31.800781-31.800781 31.800781 14.238281 31.800781 31.800781c-.019531 17.554688-14.246094 31.777344-31.800781 31.800782zm74.800781 0c-17.5625 0-31.800781-14.238282-31.800781-31.800782s14.238281-31.800781 31.800781-31.800781 31.800782 14.238281 31.800782 31.800781c-.023438 17.554688-14.25 31.78125-31.804688 31.800782zm74.800782 0c-17.5625 0-31.800782-14.238282-31.800782-31.800782s14.238282-31.800781 31.800782-31.800781 31.796874 14.238281 31.796874 31.800781c-.019531 17.554688-14.246093 31.78125-31.804687 31.800782zm0 0"/><path d="m55.453125 41.453125c-6.515625 0-11.800781 5.28125-11.800781 11.800781 0 6.515625 5.285156 11.800782 11.800781 11.800782s11.800781-5.285157 11.800781-11.800782c-.007812-6.515625-5.285156-11.792968-11.800781-11.800781zm0 0"/><path d="m0 386.03125c.0195312 16.5625 13.4375 29.984375 30 30h385.066406c16.558594-.015625 29.980469-13.4375 30-30v-259.558594h-445.066406zm0 0"/></svg>