<svg height="410pt" viewBox="0 -2 410 410" width="410pt" xmlns="http://www.w3.org/2000/svg"><path d="m360 0h-310c-27.601562.03125-49.96875 22.398438-50 50v226.507812c.03125 27.601563 22.398438 49.96875 50 50h144.300781l94.386719 76.75c2.992188 2.4375 7.121094 2.933594 10.609375 1.277344 3.484375-1.660156 5.703125-5.175781 5.703125-9.035156v-68.992188h55c27.601562-.03125 49.96875-22.398437 50-50v-226.507812c-.03125-27.601562-22.398438-49.96875-50-50zm-289.019531 80.980469h115.285156c5.523437 0 10 4.480469 10 10 0 5.523437-4.476563 10-10 10h-115.285156c-5.519531 0-10-4.476563-10-10 0-5.519531 4.480469-10 10-10zm268.039062 164.542969h-268.039062c-5.519531 0-10-4.476563-10-10 0-5.523438 4.480469-10 10-10h268.035156c5.523437 0 10 4.476562 10 10 0 5.523437-4.476563 10-10 10zm0-72.269532h-268.039062c-5.519531 0-10-4.476562-10-10 0-5.523437 4.480469-10 10-10h268.035156c5.523437 0 10 4.476563 10 10 0 5.523438-4.476563 10-10 10zm0 0"/></svg>