<svg height="479pt" viewBox="-33 0 479 479.99905" width="479pt" xmlns="http://www.w3.org/2000/svg"><path d="m81.976562 193.359375v19.585937c-.140624-.007812-.277343-.023437-.421874-.023437h-47.371094c-18.59375.023437-33.664063 15.089844-33.683594 33.6875v46.289063c0 5.523437 4.476562 10 10 10s10-4.476563 10-10v-46.289063c.007812-7.554687 6.128906-13.679687 13.683594-13.6875h47.371094c.144531 0 .28125-.015625.421874-.019531v87.265625c-.496093-.078125-.996093-.121094-1.5-.125h-35.527343c-18.59375.019531-33.664063 15.089843-33.683594 33.6875v46.292969c0 5.519531 4.476563 10 10 10s10-4.480469 10-10v-46.292969c.007813-7.554688 6.128906-13.679688 13.683594-13.6875h35.527343c.503907-.003907 1.003907-.046875 1.5-.125v1.25c-.015624 28.289062 11 55.472656 30.707032 75.769531h-10.890625c-18.59375.019531-33.664063 15.089844-33.683594 33.683594v19.378906c0 5.523438 4.476563 10 10 10s10-4.476562 10-10v-19.378906c.007813-7.554688 6.128906-13.675782 13.683594-13.683594h33.160156c1.050781-.003906 2.09375-.167969 3.089844-.492188 16.1875 9.042969 34.425781 13.78125 52.96875 13.761719h4.980469v-271.875h-98.984376c-8.296874.007813-15.019531 6.730469-15.03125 15.027344zm0 0"/><path d="m136.054688 98.03125c-15.289063 15.863281-24.792969 36.410156-26.984376 58.332031h195.8125c-2.1875-21.921875-11.695312-42.46875-26.984374-58.332031l47.824218-83.039062c2.757813-4.785157 1.113282-10.902344-3.671875-13.65625-4.789062-2.757813-10.902343-1.113282-13.660156 3.671874l-46.011719 79.890626c-33.410156-22.835938-77.402344-22.835938-110.8125 0l-46.003906-79.890626c-2.757812-4.785156-8.871094-6.429687-13.65625-3.671874-4.785156 2.753906-6.433594 8.871093-3.675781 13.65625zm0 0"/><path d="m379.769531 212.921875h-47.792969v-19.5625c-.007812-8.296875-6.730468-15.019531-15.027343-15.03125h-98.988281v271.878906h4.980468c18.542969.019531 36.78125-4.71875 52.972656-13.761719.996094.324219 2.039063.488282 3.085938.492188h33.160156c7.554688.007812 13.675782 6.128906 13.683594 13.683594v19.378906c0 5.523438 4.480469 10 10 10 5.523438 0 10-4.476562 10-10v-19.378906c-.019531-18.59375-15.089844-33.664063-33.683594-33.683594h-10.882812c19.707031-20.296875 30.71875-47.480469 30.699218-75.765625v-1.144531c.105469 0 .207032.015625.316407.015625h36.710937c7.554688.007812 13.679688 6.132812 13.6875 13.6875v46.292969c0 5.519531 4.476563 10 10 10 5.519532 0 10-4.480469 10-10v-46.292969c-.023437-18.597657-15.089844-33.664063-33.6875-33.6875h-36.710937c-.105469 0-.210938.011719-.316407.015625v-87.136719h47.792969c7.554688.007813 13.675781 6.132813 13.683594 13.6875v46.289063c0 5.523437 4.480469 10 10 10 5.523437 0 10-4.476563 10-10v-46.289063c-.019531-18.597656-15.089844-33.667969-33.683594-33.6875zm0 0"/></svg>