<svg height="412pt" viewBox="0 0 412 412" width="412pt" xmlns="http://www.w3.org/2000/svg"><path d="m280.460938 206c0 41.125-33.335938 74.460938-74.460938 74.460938s-74.460938-33.335938-74.460938-74.460938 33.335938-74.460938 74.460938-74.460938 74.460938 33.335938 74.460938 74.460938zm0 0"/><path d="m402.957031 167.3125-35.546875-3.421875c-3.933594-14.851563-9.929687-29.082031-17.808594-42.273437l22.59375-27.246094c3.28125-3.957032 3.027344-9.757813-.585937-13.414063l-40.078125-40.53125c-3.640625-3.6875-9.492188-3.980469-13.484375-.679687l-27.359375 22.632812c-13.214844-7.851562-27.4375-13.855468-42.28125-17.847656l-3.425781-35.5c-.5-5.121094-4.804688-9.03125-9.953125-9.03125h-57.542969c-5.148437 0-9.457031 3.914062-9.953125 9.039062l-3.425781 35.488282c-14.875 3.929687-29.128907 9.921875-42.34375 17.800781l-27.300781-22.578125c-3.972657-3.285156-9.792969-3.011719-13.4375.632812l-40.585938 40.527344c-3.65625 3.652344-3.929688 9.484375-.632812 13.460938l22.644531 27.308594c-7.851563 13.1875-13.859375 27.390624-17.855469 42.210937l-35.554688 3.421875c-5.125.492188-9.039062 4.800781-9.039062 9.953125v57.46875c0 5.148437 3.914062 9.460937 9.042969 9.953125l35.546875 3.421875c3.933594 14.851563 9.929687 29.082031 17.808594 42.269531l-22.59375 27.25c-3.296876 3.976563-3.023438 9.808594.632812 13.457032l40.585938 40.535156c3.648437 3.640625 9.46875 3.914062 13.441406.628906l27.359375-22.628906c13.214843 7.851562 27.441406 13.855468 42.28125 17.84375l3.425781 35.5c.5 5.125 4.804688 9.035156 9.953125 9.035156h57.542969c5.148437 0 9.457031-3.914062 9.953125-9.039062l3.425781-35.488282c14.875-3.929687 29.128906-9.921875 42.34375-17.800781l27.300781 22.578125c3.972657 3.285156 9.789063 3.011719 13.4375-.632812l40.585938-40.53125c3.65625-3.652344 3.929687-9.484376.632812-13.460938l-22.644531-27.308594c7.851562-13.191406 13.863281-27.394531 17.859375-42.214844l35.046875-3.414062c5.125-.5 9.03125-4.808594 9.03125-9.953125v-57.46875c0-5.152344-3.914062-9.460937-9.042969-9.953125zm-196.957031 133.148438c-52.171875 0-94.460938-42.289063-94.460938-94.460938s42.289063-94.460938 94.460938-94.460938 94.460938 42.289063 94.460938 94.460938c-.058594 52.144531-42.316407 94.402344-94.460938 94.460938zm0 0"/></svg>