<svg height="354pt" viewBox="-40 0 354 354.96044" width="354pt" xmlns="http://www.w3.org/2000/svg"><path d="m.480469 349 18.011719-16.609375c11.332031-10.519531 28.8125-10.660156 40.3125-.328125l22.808593 20.351562c3.804688 3.40625 9.570313 3.394532 13.355469-.035156l22.476562-20.277344c11.40625-10.335937 28.789063-10.335937 40.195313 0l22.476563 20.277344c3.785156 3.425782 9.550781 3.441406 13.355468.035156l22.808594-20.355468c11.5-10.332032 28.984375-10.1875 40.3125.332031l18.011719 16.609375v-349h-274.125zm70.214843-233.222656h128.347657c5.523437 0 10 4.480468 10 10 0 5.523437-4.476563 10-10 10h-128.347657c-5.523437 0-10-4.476563-10-10 0-5.519532 4.476563-10 10-10zm0 69.523437h128.347657c5.523437 0 10 4.476563 10 10 0 5.523438-4.476563 10-10 10h-128.347657c-5.523437 0-10-4.476562-10-10 0-5.523437 4.476563-10 10-10zm0 0"/></svg>