<svg height="462pt" viewBox="0 -98 462.001 462" width="462pt" xmlns="http://www.w3.org/2000/svg"><path d="m256.152344 0h-206.152344c-27.601562.03125-49.96875 22.398438-50 50v165.949219c.03125 27.601562 22.398438 49.96875 50 50h206.152344c27.601562-.03125 49.96875-22.398438 50-50v-165.949219c-.03125-27.601562-22.398438-49.96875-50-50zm0 0"/><path d="m456.957031 26.035156c-3.117187-1.777344-6.949219-1.75-10.042969.074219l-110.5625 65.28125c-3.046874 1.800781-4.914062 5.074219-4.914062 8.613281v60.304688c0 3.089844 1.425781 6.007812 3.867188 7.902344l110.5625 85.835937c3.015624 2.339844 7.101562 2.761719 10.53125 1.082031 3.429687-1.679687 5.601562-5.164062 5.601562-8.984375v-211.425781c0-3.589844-1.925781-6.902344-5.042969-8.683594zm0 0"/></svg>