<svg height="453pt" viewBox="0 -28 453.99791 453" width="453pt" xmlns="http://www.w3.org/2000/svg"><path d="m345.375 3.410156c-2.863281-2.847656-7.160156-3.695312-10.890625-2.144531s-6.164063 5.191406-6.164063 9.234375v53.359375c-54.003906 2.152344-81.054687 24.535156-85.191406 28.261719-27.25 22.363281-45.855468 53.527344-52.613281 88.121094-3.378906 16.714843-3.984375 33.871093-1.785156 50.78125l.007812.058593c.019531.148438.042969.300781.066407.449219l2.125 12.214844c.714843 4.113281 3.914062 7.351562 8.019531 8.117187 4.109375.765625 8.257812-1.105469 10.40625-4.683593l6.367187-10.613282c19.5625-32.53125 43.941406-54.09375 72.46875-64.089844 12.867188-4.546874 26.5-6.546874 40.128906-5.882812v55.265625c0 4.046875 2.441407 7.699219 6.183594 9.242187 3.746094 1.546876 8.050782.679688 10.90625-2.191406l105.675782-106.210937c3.894531-3.914063 3.878906-10.246094-.035157-14.140625zm0 0"/><path d="m417.351562 294.953125c-5.519531 0-10 4.476563-10 10v42.265625c-.015624 16.558594-13.4375 29.980469-30 30h-327.351562c-16.5625-.019531-29.980469-13.441406-30-30v-238.246094c.019531-16.5625 13.4375-29.980468 30-30h69.160156c5.523438 0 10-4.476562 10-10 0-5.523437-4.476562-10-10-10h-69.160156c-27.601562.03125-49.96875 22.398438-50 50v238.246094c.03125 27.597656 22.398438 49.964844 50 50h327.351562c27.601563-.035156 49.96875-22.402344 50-50v-42.265625c0-5.523437-4.476562-10-10-10zm0 0"/></svg>