<svg height="488pt" viewBox="-71 0 488 488.25397" width="488pt" xmlns="http://www.w3.org/2000/svg"><path d="m286.367188 183.4375v-68.789062c.121093-40.917969-21.640626-78.78125-57.058594-99.277344-35.417969-20.496094-79.089844-20.496094-114.507813 0s-57.179687 58.359375-57.058593 99.277344v71.25c-2.304688 2.066406-4.558594 4.199218-6.773438 6.402343-67.71875 67.628907-67.800781 177.347657-.183594 245.082031 67.617188 67.734376 177.335938 67.839844 245.085938.238282 67.746094-67.601563 67.878906-177.320313.292968-245.082032-3.167968-3.171874-6.433593-6.207031-9.796874-9.101562zm-102.921876 174.234375v28.074219c0 5.523437-4.476562 10-10 10-5.523437 0-10-4.476563-10-10v-28.074219c-16.28125-4.953125-26.484374-21.085937-23.980468-37.921875 2.507812-16.832031 16.960937-29.296875 33.980468-29.296875 17.019532 0 31.472657 12.464844 33.980469 29.296875 2.503907 16.835938-7.695312 32.96875-23.980469 37.921875zm82.921876-189.101563c-57.777344-36.492187-131.566407-35.773437-188.621094 1.832032v-55.753906c0-52.085938 42.222656-94.3125 94.3125-94.3125 52.085937 0 94.3125 42.226562 94.3125 94.3125v53.925781zm0 0"/><path d="m173.445312 310.457031c-7.925781-.003906-14.355468 6.421875-14.355468 14.351563 0 7.925781 6.425781 14.355468 14.355468 14.355468 7.925782 0 14.351563-6.425781 14.351563-14.355468-.007813-7.921875-6.429687-14.34375-14.351563-14.351563zm0 0"/></svg>