<svg height="435pt" viewBox="-64 0 435 435" width="435pt" xmlns="http://www.w3.org/2000/svg"><path d="m222.972656 69.242188c.007813-8.019532-4.785156-15.265626-12.164062-18.398438l-14.296875-6.085938c-12.449219-5.289062-20.527344-17.507812-20.511719-31.03125-.011719-7.578124-6.148438-13.7187495-13.726562-13.726562h-17.0625c-7.578126.0078125-13.71875 6.148438-13.726563 13.726562.015625 13.523438-8.066406 25.742188-20.511719 31.03125l-14.300781 6.085938c-7.382813 3.132812-12.171875 10.378906-12.164063 18.398438v14.832031h138.464844zm0 0"/><path d="m277.484375 75.820312h-34.511719v18.257813c0 5.523437-4.476562 10-10 10h-158.460937c-5.523438 0-10-4.476563-10-10v-18.257813h-34.511719c-16.5625.019532-29.9804688 13.4375-30 30v299.179688c.0195312 16.5625 13.4375 29.980469 30 30h247.484375c16.5625-.019531 29.984375-13.4375 30-30v-299.179688c-.015625-16.5625-13.4375-29.980468-30-30zm-229.382813 112.050782h87.332032c5.523437 0 10 4.476562 10 10 0 5.523437-4.476563 10-10 10h-87.332032c-5.523437 0-10-4.476563-10-10 0-5.523438 4.476563-10 10-10zm211.28125 172.050781h-211.28125c-5.523437 0-10-4.476563-10-10s4.476563-10 10-10h211.28125c5.523438 0 10 4.476563 10 10s-4.476562 10-10 10zm0-73.382813h-211.28125c-5.523437 0-10-4.476562-10-10 0-5.523437 4.476563-10 10-10h211.28125c5.523438 0 10 4.476563 10 10 0 5.523438-4.476562 10-10 10zm0 0"/></svg>