<svg height="448pt" viewBox="-96 0 448 448" width="448pt" xmlns="http://www.w3.org/2000/svg"><path d="m127.664062 315.578125c45.566407 0 82.636719-36.785156 82.636719-82v-150.945313c0-45.636718-36.996093-82.632812-82.636719-82.632812-45.636718 0-82.632812 36.996094-82.632812 82.632812v150.3125c.050781 45.613282 37.019531 82.582032 82.632812 82.632813zm0 0"/><path d="m245.332031 217.898438c-5.523437 0-10 4.480468-10 10v11.449218c0 59.464844-48.203125 107.667969-107.667969 107.667969-59.460937 0-107.664062-48.203125-107.664062-107.667969v-11.449218c0-5.519532-4.476562-10-10-10s-10 4.480468-10 10v11.449218c0 67.03125 51.925781 122.160156 117.664062 127.277344v61.375h-19.21875c-5.523437 0-10 4.476562-10 10s4.476563 10 10 10h58.441407c5.523437 0 10-4.476562 10-10s-4.476563-10-10-10h-19.222657v-61.375c65.742188-5.117188 117.667969-60.246094 117.667969-127.277344v-11.449218c0-5.519532-4.476562-10-10-10zm0 0"/></svg>