<?xml version="1.0" encoding="iso-8859-1"?>
<!-- Generator: Adobe Illustrator 19.0.0, SVG Export Plug-In . SVG Version: 6.00 Build 0)  -->
<svg xmlns="http://www.w3.org/2000/svg" xmlns:xlink="http://www.w3.org/1999/xlink" version="1.1" id="Capa_1" x="0px" y="0px" viewBox="0 0 512 512" style="enable-background:new 0 0 512 512;" xml:space="preserve">
<g>
	<g>
		<g>
			<circle cx="256" cy="53.333" r="53.333"/>
			<path d="M480,128H32c-5.896,0-10.667,4.771-10.667,10.667v42.667C21.333,187.229,26.104,192,32,192h138.667v309.333     c0,5.896,4.771,10.667,10.667,10.667h53.333c5.896,0,10.667-4.771,10.667-10.667v-160h21.333v160     c0,5.896,4.771,10.667,10.667,10.667h53.333c5.896,0,10.667-4.771,10.667-10.667V192H480c5.896,0,10.667-4.771,10.667-10.667     v-42.667C490.667,132.771,485.896,128,480,128z"/>
		</g>
	</g>
</g>
<g>
</g>
<g>
</g>
<g>
</g>
<g>
</g>
<g>
</g>
<g>
</g>
<g>
</g>
<g>
</g>
<g>
</g>
<g>
</g>
<g>
</g>
<g>
</g>
<g>
</g>
<g>
</g>
<g>
</g>
</svg>
