<?xml version="1.0" encoding="utf-8"?>
<!-- Generator: Adobe Illustrator 24.2.3, SVG Export Plug-In . SVG Version: 6.00 Build 0)  -->
<svg version="1.1" id="Layer_2_1_" xmlns="http://www.w3.org/2000/svg" xmlns:xlink="http://www.w3.org/1999/xlink" x="0px" y="0px"
	 viewBox="0 0 512 512" style="enable-background:new 0 0 512 512;" xml:space="preserve">
<style type="text/css">
	.st0{fill:#FFFFFF;}
</style>
<g>
	<path class="st0" d="M307.7,21.4c28.6,28.6,28.6,74.9,0,103.4c-28.6,28.6-74.9,28.6-103.4,0s-28.6-74.9,0-103.4
		S279.2-7.1,307.7,21.4z"/>
	<path class="st0" d="M307.7,204.3c28.6,28.6,28.6,74.9,0,103.4c-28.6,28.6-74.9,28.6-103.4,0c-28.6-28.6-28.6-74.9,0-103.4
		S279.2,175.7,307.7,204.3z"/>
	<path class="st0" d="M490.6,204.3c28.6,28.6,28.6,74.9,0,103.4c-28.6,28.6-74.9,28.6-103.4,0c-28.6-28.6-28.6-74.9,0-103.4
		S462,175.7,490.6,204.3z"/>
	<path class="st0" d="M490.6,387.1c28.6,28.6,28.6,74.9,0,103.4c-28.6,28.6-74.9,28.6-103.4,0s-28.6-74.9,0-103.4
		S462,358.6,490.6,387.1z"/>
	<path class="st0" d="M124.9,204.3c28.6,28.6,28.6,74.9,0,103.4s-74.9,28.6-103.4,0c-28.6-28.6-28.6-74.9,0-103.4
		S96.3,175.7,124.9,204.3z"/>
	<path class="st0" d="M125,21.3c28.6,28.6,28.6,74.9,0,103.4s-74.9,28.6-103.4,0S-7,49.8,21.6,21.3S96.4-7.3,125,21.3z"/>
	<path class="st0" d="M124.9,387.1c28.6,28.6,28.6,74.9,0,103.4s-74.9,28.6-103.4,0s-28.6-74.9,0-103.4
		C50,358.6,96.3,358.6,124.9,387.1"/>
	<path class="st0" d="M307.7,387.1c28.6,28.6,28.6,74.9,0,103.4c-28.6,28.6-74.9,28.6-103.4,0s-28.6-74.9,0-103.4
		C232.8,358.6,279.2,358.6,307.7,387.1"/>
	<path class="st0" d="M490.6,21.4c28.6,28.6,28.6,74.9,0,103.4c-28.6,28.6-74.9,28.6-103.4,0s-28.6-74.9,0-103.4S462-7.1,490.6,21.4
		"/>
</g>
</svg>
