<?xml version="1.0" encoding="iso-8859-1"?>
<!-- Generator: Adobe Illustrator 19.0.0, SVG Export Plug-In . SVG Version: 6.00 Build 0)  -->
<svg xmlns="http://www.w3.org/2000/svg" xmlns:xlink="http://www.w3.org/1999/xlink" version="1.1" id="Capa_1" x="0px" y="0px" viewBox="0 0 512 512" style="enable-background:new 0 0 512 512;" xml:space="preserve">
<g>
	<g>
		<path d="M437.333,85.333c-19.958,0-38.708,7.771-53.021,22.094L256,243.292L127.479,107.208    c-14.104-14.104-32.854-21.875-52.813-21.875C33.5,85.333,0,118.833,0,160c0,19.896,7.729,38.604,21.771,52.688l181.438,192.104    c10.396,10.396,23.458,17.438,37.75,20.354c4.917,1.01,9.979,1.521,15.042,1.521s10.125-0.51,15.021-1.521    c14.313-2.917,27.375-9.958,37.979-20.573l181.125-191.781C504.229,198.698,512,179.948,512,160    C512,118.833,478.5,85.333,437.333,85.333z"/>
	</g>
</g>
<g>
</g>
<g>
</g>
<g>
</g>
<g>
</g>
<g>
</g>
<g>
</g>
<g>
</g>
<g>
</g>
<g>
</g>
<g>
</g>
<g>
</g>
<g>
</g>
<g>
</g>
<g>
</g>
<g>
</g>
</svg>
