<svg id="Capa_1" enable-background="new 0 0 515.556 515.556" height="512" viewBox="0 0 515.556 515.556" width="512" xmlns="http://www.w3.org/2000/svg"><path d="m495.535 398.868-183.384-183.384c6.148-17.059 10.071-35.196 10.071-54.373 0-88.979-72.132-161.111-161.111-161.111-19.968 0-38.874 4.099-56.519 10.738l87.335 87.335-96.666 96.667-85.854-85.854c-5.672 16.461-9.407 33.837-9.407 52.225 0 88.979 72.132 161.111 161.111 161.111 19.177 0 37.314-3.924 54.373-10.071l183.384 183.384c12.819 12.819 30.204 20.021 48.333 20.021 37.751 0 68.354-30.604 68.354-68.354.001-18.129-7.201-35.515-20.02-48.334z"/></svg>
