<?xml version="1.0" encoding="iso-8859-1"?>
<!-- Generator: Adobe Illustrator 19.0.0, SVG Export Plug-In . SVG Version: 6.00 Build 0)  -->
<svg xmlns="http://www.w3.org/2000/svg" xmlns:xlink="http://www.w3.org/1999/xlink" version="1.1" id="Capa_1" x="0px" y="0px" viewBox="0 0 512 512" style="enable-background:new 0 0 512 512;" xml:space="preserve">
<g>
	<g>
		<path fill="#555" d="M444.862,109.779L338.221,3.138C336.29,1.201,333.621,0,330.667,0h-224C83.146,0,64,19.135,64,42.667v426.667    C64,492.865,83.146,512,106.667,512h298.667C428.854,512,448,492.865,448,469.333v-352    C448,114.379,446.799,111.71,444.862,109.779z M266.667,426.667H160c-5.896,0-10.667-4.771-10.667-10.667    c0-5.896,4.771-10.667,10.667-10.667h106.667c5.896,0,10.667,4.771,10.667,10.667    C277.333,421.896,272.563,426.667,266.667,426.667z M352,362.667H160c-5.896,0-10.667-4.771-10.667-10.667    c0-5.896,4.771-10.667,10.667-10.667h192c5.896,0,10.667,4.771,10.667,10.667C362.667,357.896,357.896,362.667,352,362.667z     M352,298.667H160c-5.896,0-10.667-4.771-10.667-10.667s4.771-10.667,10.667-10.667h192c5.896,0,10.667,4.771,10.667,10.667    S357.896,298.667,352,298.667z M352,234.667H160c-5.896,0-10.667-4.771-10.667-10.667s4.771-10.667,10.667-10.667h192    c5.896,0,10.667,4.771,10.667,10.667S357.896,234.667,352,234.667z M362.667,106.667c-11.771,0-21.333-9.573-21.333-21.333V36.417    l70.25,70.25H362.667z"/>
	</g>
</g>
<g>
</g>
<g>
</g>
<g>
</g>
<g>
</g>
<g>
</g>
<g>
</g>
<g>
</g>
<g>
</g>
<g>
</g>
<g>
</g>
<g>
</g>
<g>
</g>
<g>
</g>
<g>
</g>
<g>
</g>
</svg>
