<?xml version="1.0" encoding="iso-8859-1"?>
<!-- Generator: Adobe Illustrator 19.0.0, SVG Export Plug-In . SVG Version: 6.00 Build 0)  -->
<svg xmlns="http://www.w3.org/2000/svg" xmlns:xlink="http://www.w3.org/1999/xlink" version="1.1" id="Capa_1" x="0px" y="0px" viewBox="0 0 512 512" style="enable-background:new 0 0 512 512;" xml:space="preserve">
<g>
	<g>
		<g>
			<path fill="#0082b7" d="M330.667,256c5.938,0,12.24,0.51,19.823,1.594c3.031,0.438,6.156-0.479,8.5-2.5c2.333-2.031,3.677-4.969,3.677-8.063V96     c0-2.954-1.201-5.624-3.138-7.555L274.221,3.138C272.29,1.201,269.621,0,266.667,0h-160C83.135,0,64,19.135,64,42.667v320     c0,23.531,19.135,42.667,42.667,42.667h74.667c5.896,0,10.667-4.771,10.667-10.667C192,318.208,254.208,256,330.667,256z      M277.333,36.417l48.917,48.917h-27.583c-11.76,0-21.333-9.573-21.333-21.333V36.417z"/>
			<path fill="#509e5a" d="M330.667,277.333c-64.698,0-117.333,52.635-117.333,117.333S265.969,512,330.667,512S448,459.365,448,394.667     S395.365,277.333,330.667,277.333z M373.333,405.333h-32v32c0,5.896-4.771,10.667-10.667,10.667     c-5.896,0-10.667-4.771-10.667-10.667v-32h-32c-5.896,0-10.667-4.771-10.667-10.667S282.104,384,288,384h32v-32     c0-5.896,4.771-10.667,10.667-10.667c5.896,0,10.667,4.771,10.667,10.667v32h32c5.896,0,10.667,4.771,10.667,10.667     S379.229,405.333,373.333,405.333z"/>
		</g>
	</g>
</g>
<g>
</g>
<g>
</g>
<g>
</g>
<g>
</g>
<g>
</g>
<g>
</g>
<g>
</g>
<g>
</g>
<g>
</g>
<g>
</g>
<g>
</g>
<g>
</g>
<g>
</g>
<g>
</g>
<g>
</g>
</svg>
