<?xml version="1.0" encoding="iso-8859-1"?>
<!-- Generator: Adobe Illustrator 19.0.0, SVG Export Plug-In . SVG Version: 6.00 Build 0)  -->
<svg xmlns="http://www.w3.org/2000/svg" xmlns:xlink="http://www.w3.org/1999/xlink" version="1.1" id="Capa_1" x="0px" y="0px" viewBox="0 0 512 512" style="enable-background:new 0 0 512 512;" xml:space="preserve">
<g>
	<g>
		<g>
			<path fill="#509e5a" d="M394.667,256c-64.698,0-117.333,52.635-117.333,117.333s52.635,117.333,117.333,117.333S512,438.031,512,373.333     S459.365,256,394.667,256z M437.333,384h-32v32c0,5.896-4.771,10.667-10.667,10.667S384,421.896,384,416v-32h-32     c-5.896,0-10.667-4.771-10.667-10.667c0-5.896,4.771-10.667,10.667-10.667h32v-32c0-5.896,4.771-10.667,10.667-10.667     s10.667,4.771,10.667,10.667v32h32c5.896,0,10.667,4.771,10.667,10.667C448,379.229,443.229,384,437.333,384z"/>
			<path fill="#0082b7" d="M256,373.333c0-76.458,62.208-138.667,138.667-138.667c20.563,0,40.552,4.552,59.417,13.531     c3.323,1.563,7.198,1.333,10.281-0.615c3.094-1.958,4.969-5.365,4.969-9.021V106.667c0-23.531-19.135-42.667-42.667-42.667     h-198.25l-39.542-39.542c-2-2-4.708-3.125-7.542-3.125H42.667C19.135,21.333,0,40.469,0,64v298.667     c0,23.531,19.135,42.667,42.667,42.667h204.365c3.094,0,6.031-1.344,8.063-3.677c2.021-2.333,2.938-5.438,2.5-8.5     C256.51,385.573,256,379.271,256,373.333z"/>
		</g>
	</g>
</g>
<g>
</g>
<g>
</g>
<g>
</g>
<g>
</g>
<g>
</g>
<g>
</g>
<g>
</g>
<g>
</g>
<g>
</g>
<g>
</g>
<g>
</g>
<g>
</g>
<g>
</g>
<g>
</g>
<g>
</g>
</svg>
