<?xml version="1.0" encoding="iso-8859-1"?>
<!-- Generator: Adobe Illustrator 19.0.0, SVG Export Plug-In . SVG Version: 6.00 Build 0)  -->
<svg xmlns="http://www.w3.org/2000/svg" xmlns:xlink="http://www.w3.org/1999/xlink" version="1.1" id="Capa_1" x="0px" y="0px" viewBox="0 0 512 512" style="enable-background:new 0 0 512 512;" xml:space="preserve">
<g>
	<g>
		<path fill="#0082b7" d="M469.333,85.333H249.75l-39.542-39.542c-2-2-4.708-3.125-7.542-3.125h-160C19.146,42.667,0,61.802,0,85.333v341.333    c0,23.531,19.146,42.667,42.667,42.667h426.667c23.521,0,42.667-19.135,42.667-42.667V128    C512,104.469,492.854,85.333,469.333,85.333z M330.667,170.667C360.083,170.667,384,194.594,384,224s-23.917,53.333-53.333,53.333    S277.333,253.406,277.333,224S301.25,170.667,330.667,170.667z M426.667,359.333c0,13.604-10.25,24.667-22.854,24.667H257.521    c-12.604,0-22.854-11.063-22.854-24.667V352.5c0-17.823,8.833-34.104,23.042-42.49C274.75,299.969,301.25,288,330.667,288    s55.917,11.969,72.958,22.01c14.208,8.385,23.042,24.667,23.042,42.49V359.333z"/>
	</g>
</g>
<g>
</g>
<g>
</g>
<g>
</g>
<g>
</g>
<g>
</g>
<g>
</g>
<g>
</g>
<g>
</g>
<g>
</g>
<g>
</g>
<g>
</g>
<g>
</g>
<g>
</g>
<g>
</g>
<g>
</g>
</svg>
