<?xml version="1.0" encoding="iso-8859-1"?>
<!-- Generator: Adobe Illustrator 19.0.0, SVG Export Plug-In . SVG Version: 6.00 Build 0)  -->
<svg xmlns="http://www.w3.org/2000/svg" xmlns:xlink="http://www.w3.org/1999/xlink" version="1.1" id="Capa_1" x="0px" y="0px" viewBox="0 0 512 512" style="enable-background:new 0 0 512 512;" xml:space="preserve">
<g>
	<g>
		<g>
			<path fill="#0082b7" d="M416,234.667c13.167,0,26.083,2.74,38.375,8.135c3.292,1.448,7.083,1.135,10.125-0.833     c3.021-1.969,4.833-5.323,4.833-8.927V106.667c0-23.531-19.146-42.667-42.667-42.667h-198.25l-39.542-39.542     c-2-2-4.708-3.125-7.542-3.125H42.667C19.146,21.333,0,40.469,0,64v298.667c0,23.531,19.146,42.667,42.667,42.667H288     c5.896,0,10.667-4.771,10.667-10.667v-32c0-13.656,6.729-26.615,18-34.656c2.479-1.771,4.083-4.521,4.417-7.542     C326.354,271.552,367.146,234.667,416,234.667z"/>
			<path d="M490.667,341.333v-10.667C490.667,289.5,457.167,256,416,256c-41.167,0-74.667,33.5-74.667,74.667v10.667     c-11.76,0-21.333,9.573-21.333,21.333v106.667c0,11.76,9.573,21.333,21.333,21.333h149.333c11.76,0,21.333-9.573,21.333-21.333     V362.667C512,350.906,502.427,341.333,490.667,341.333z M426.667,423.387v13.947c0,5.896-4.771,10.667-10.667,10.667     c-5.896,0-10.667-4.771-10.667-10.667v-13.947c-6.258-3.724-10.667-10.262-10.667-18.053c0-11.76,9.573-21.333,21.333-21.333     c11.76,0,21.333,9.573,21.333,21.333C437.333,413.125,432.924,419.663,426.667,423.387z M448,341.333h-64v-10.667     c0-17.646,14.354-32,32-32c17.646,0,32,14.354,32,32V341.333z"/>
		</g>
	</g>
</g>
<g>
</g>
<g>
</g>
<g>
</g>
<g>
</g>
<g>
</g>
<g>
</g>
<g>
</g>
<g>
</g>
<g>
</g>
<g>
</g>
<g>
</g>
<g>
</g>
<g>
</g>
<g>
</g>
<g>
</g>
</svg>
