<?xml version="1.0" encoding="iso-8859-1"?>
<!-- Generator: Adobe Illustrator 19.0.0, SVG Export Plug-In . SVG Version: 6.00 Build 0)  -->
<svg xmlns="http://www.w3.org/2000/svg" xmlns:xlink="http://www.w3.org/1999/xlink" version="1.1" id="Capa_1" x="0px" y="0px" viewBox="0 0 512 512" style="enable-background:new 0 0 512 512;" xml:space="preserve">
<g>
	<g>
		<g>
			<path fill="#0082b7" d="M448,234.667c2.344,0,4.875,0.375,7.969,1.188c3.219,0.802,6.594,0.115,9.219-1.885c2.615-2.01,4.146-5.135,4.146-8.438     V106.667c0-23.531-19.135-42.667-42.667-42.667h-198.25l-39.542-39.542c-2-2-4.708-3.125-7.542-3.125H42.667     C19.135,21.333,0,40.469,0,64v298.667c0,23.531,19.135,42.667,42.667,42.667H288c5.896,0,10.667-4.771,10.667-10.667V280.958     c0-25.521,20.771-46.292,46.292-46.292H448z"/>
			<path d="M508.875,312.458l-53.333-53.333c-2-2-4.708-3.125-7.542-3.125H344.958C331.188,256,320,267.198,320,280.958v184.75     c0,13.76,11.188,24.958,24.958,24.958h142.083c13.771,0,24.958-11.198,24.958-24.958V320     C512,317.167,510.875,314.458,508.875,312.458z M451.625,320c-2,0-3.625-1.625-3.625-3.625V281.75L486.25,320H451.625z"/>
		</g>
	</g>
</g>
<g>
</g>
<g>
</g>
<g>
</g>
<g>
</g>
<g>
</g>
<g>
</g>
<g>
</g>
<g>
</g>
<g>
</g>
<g>
</g>
<g>
</g>
<g>
</g>
<g>
</g>
<g>
</g>
<g>
</g>
</svg>
