<?xml version="1.0" encoding="iso-8859-1"?>
<!-- Generator: Adobe Illustrator 19.0.0, SVG Export Plug-In . SVG Version: 6.00 Build 0)  -->
<svg xmlns="http://www.w3.org/2000/svg" xmlns:xlink="http://www.w3.org/1999/xlink" version="1.1" id="Capa_1" x="0px" y="0px" viewBox="0 0 512 512" style="enable-background:new 0 0 512 512;" xml:space="preserve">
<g>
	<g>
		<g>
			<path d="M506.938,321.594c-3.146-1.969-7.083-2.135-10.375-0.469l-49.177,24.594C444.458,331.073,431.5,320,416,320H288     c-31.104,0-32,76.604-32,85.333c0,8.729,0.896,85.333,32,85.333h128c15.5,0,28.458-11.073,31.385-25.719l49.177,24.594     c1.51,0.75,3.135,1.125,4.771,1.125c1.948,0,3.896-0.531,5.604-1.594c3.146-1.948,5.063-5.375,5.063-9.073V330.667     C512,326.969,510.083,323.542,506.938,321.594z"/>
			<path fill="#0082b7" d="M288,298.667h128c13.104,0,25.729,4.823,35.573,13.594c3.146,2.781,7.646,3.49,11.458,1.76     c3.833-1.719,6.302-5.531,6.302-9.729V106.667c0-23.531-19.135-42.667-42.667-42.667h-198.25l-39.542-39.542     c-2-2-4.708-3.125-7.542-3.125H42.667C19.135,21.333,0,40.469,0,64v298.667c0,23.531,19.135,42.667,42.667,42.667h181.771     c5.75,0,10.469-4.563,10.656-10.313C236.052,366.042,243.104,298.667,288,298.667z"/>
		</g>
	</g>
</g>
<g>
</g>
<g>
</g>
<g>
</g>
<g>
</g>
<g>
</g>
<g>
</g>
<g>
</g>
<g>
</g>
<g>
</g>
<g>
</g>
<g>
</g>
<g>
</g>
<g>
</g>
<g>
</g>
<g>
</g>
</svg>
