<?xml version="1.0" encoding="iso-8859-1"?>
<!-- Generator: Adobe Illustrator 19.0.0, SVG Export Plug-In . SVG Version: 6.00 Build 0)  -->
<svg xmlns="http://www.w3.org/2000/svg" xmlns:xlink="http://www.w3.org/1999/xlink" version="1.1" id="Capa_1" x="0px" y="0px" viewBox="0 0 512 512" style="enable-background:new 0 0 512 512;" xml:space="preserve">
<g>
	<g>
		<g>
			<path fill="#888" d="M42.667,448c-11.771,0-21.333-9.573-21.333-21.333c0-5.896-4.771-10.667-10.667-10.667C4.771,416,0,420.771,0,426.667     c0,23.531,19.146,42.667,42.667,42.667c5.896,0,10.667-4.771,10.667-10.667S48.563,448,42.667,448z"/>
			<path fill="#888" d="M501.333,416c-5.896,0-10.667,4.771-10.667,10.667c0,11.76-9.563,21.333-21.333,21.333     c-5.896,0-10.667,4.771-10.667,10.667s4.771,10.667,10.667,10.667c23.521,0,42.667-19.135,42.667-42.667     C512,420.771,507.229,416,501.333,416z"/>
			<path fill="#888" d="M469.333,106.667c11.771,0,21.333,9.573,21.333,21.333c0,5.896,4.771,10.667,10.667,10.667     c5.896,0,10.667-4.771,10.667-10.667c0-23.531-19.146-42.667-42.667-42.667c-5.896,0-10.667,4.771-10.667,10.667     S463.438,106.667,469.333,106.667z"/>
			<path fill="#888" d="M42.667,42.667C19.146,42.667,0,61.802,0,85.333C0,91.229,4.771,96,10.667,96c5.896,0,10.667-4.771,10.667-10.667     C21.333,73.573,30.896,64,42.667,64c5.896,0,10.667-4.771,10.667-10.667C53.333,47.438,48.563,42.667,42.667,42.667z"/>
			<path fill="#888" d="M117.333,42.667H96c-5.896,0-10.667,4.771-10.667,10.667C85.333,59.229,90.104,64,96,64h21.333     C123.229,64,128,59.229,128,53.333C128,47.438,123.229,42.667,117.333,42.667z"/>
			<path fill="#888" d="M326.563,106.667c5.896,0,10.667-4.771,10.667-10.667s-4.771-10.667-10.667-10.667h-45.375     c-5.896,0-10.667,4.771-10.667,10.667s4.771,10.667,10.667,10.667H326.563z"/>
			<path fill="#888" d="M185.396,64h12.854L215,80.75c2.083,2.083,4.813,3.125,7.542,3.125c2.729,0,5.458-1.042,7.542-3.125     c4.167-4.167,4.167-10.917,0-15.083l-19.875-19.875c-2-2-4.708-3.125-7.542-3.125h-17.271c-5.896,0-10.667,4.771-10.667,10.667     C174.729,59.229,179.5,64,185.396,64z"/>
			<path fill="#888" d="M394.646,106.667h21.333c5.896,0,10.667-4.771,10.667-10.667s-4.771-10.667-10.667-10.667h-21.333     c-5.896,0-10.667,4.771-10.667,10.667S388.75,106.667,394.646,106.667z"/>
			<path fill="#888" d="M10.667,170.667c5.896,0,10.667-4.771,10.667-10.667v-21.333c0-5.896-4.771-10.667-10.667-10.667     C4.771,128,0,132.771,0,138.667V160C0,165.896,4.771,170.667,10.667,170.667z"/>
			<path fill="#888" d="M10.667,290.667c5.896,0,10.667-4.771,10.667-10.667v-48c0-5.896-4.771-10.667-10.667-10.667     C4.771,221.333,0,226.104,0,232v48C0,285.896,4.771,290.667,10.667,290.667z"/>
			<path fill="#888" d="M10.667,384c5.896,0,10.667-4.771,10.667-10.667V352c0-5.896-4.771-10.667-10.667-10.667C4.771,341.333,0,346.104,0,352     v21.333C0,379.229,4.771,384,10.667,384z"/>
			<path fill="#888" d="M501.333,170.667c-5.896,0-10.667,4.771-10.667,10.667v21.333c0,5.896,4.771,10.667,10.667,10.667     c5.896,0,10.667-4.771,10.667-10.667v-21.333C512,175.438,507.229,170.667,501.333,170.667z"/>
			<path fill="#888" d="M501.333,248c-5.896,0-10.667,4.771-10.667,10.667V296c0,5.896,4.771,10.667,10.667,10.667     c5.896,0,10.667-4.771,10.667-10.667v-37.333C512,252.771,507.229,248,501.333,248z"/>
			<path fill="#888" d="M501.333,341.333c-5.896,0-10.667,4.771-10.667,10.667v21.333c0,5.896,4.771,10.667,10.667,10.667     c5.896,0,10.667-4.771,10.667-10.667V352C512,346.104,507.229,341.333,501.333,341.333z"/>
			<path fill="#888" d="M117.333,448H96c-5.896,0-10.667,4.771-10.667,10.667S90.104,469.333,96,469.333h21.333     c5.896,0,10.667-4.771,10.667-10.667S123.229,448,117.333,448z"/>
			<path fill="#888" d="M330.667,448H288c-5.896,0-10.667,4.771-10.667,10.667s4.771,10.667,10.667,10.667h42.667     c5.896,0,10.667-4.771,10.667-10.667S336.563,448,330.667,448z"/>
			<path fill="#888" d="M224,448h-42.667c-5.896,0-10.667,4.771-10.667,10.667s4.771,10.667,10.667,10.667H224     c5.896,0,10.667-4.771,10.667-10.667S229.896,448,224,448z"/>
			<path fill="#888" d="M416,448h-21.333c-5.896,0-10.667,4.771-10.667,10.667s4.771,10.667,10.667,10.667H416     c5.896,0,10.667-4.771,10.667-10.667S421.896,448,416,448z"/>
		</g>
	</g>
</g>
<g>
</g>
<g>
</g>
<g>
</g>
<g>
</g>
<g>
</g>
<g>
</g>
<g>
</g>
<g>
</g>
<g>
</g>
<g>
</g>
<g>
</g>
<g>
</g>
<g>
</g>
<g>
</g>
<g>
</g>
</svg>
