<?xml version="1.0" encoding="iso-8859-1"?>
<!-- Generator: Adobe Illustrator 19.0.0, SVG Export Plug-In . SVG Version: 6.00 Build 0)  -->
<svg xmlns="http://www.w3.org/2000/svg" xmlns:xlink="http://www.w3.org/1999/xlink" version="1.1" id="Capa_1" x="0px" y="0px" viewBox="0 0 512 512" style="enable-background:new 0 0 512 512;" xml:space="preserve">
<g>
	<g>
		<path fill="#0082b7" d="M469.333,85.333H249.75l-39.542-39.542c-2-2-4.708-3.125-7.542-3.125h-160C19.146,42.667,0,61.802,0,85.333v341.333    c0,23.531,19.146,42.667,42.667,42.667h426.667c23.521,0,42.667-19.135,42.667-42.667V128    C512,104.469,492.854,85.333,469.333,85.333z M405.333,245.333c0,4.313-2.604,8.208-6.583,9.854    c-1.313,0.552-2.708,0.813-4.083,0.813c-2.771,0-5.5-1.083-7.542-3.125L352,217.75l-35.125,35.125    c-3.063,3.063-7.646,3.979-11.625,2.313c-3.979-1.646-6.583-5.542-6.583-9.854V106.667h106.667V245.333z"/>
	</g>
</g>
<g>
</g>
<g>
</g>
<g>
</g>
<g>
</g>
<g>
</g>
<g>
</g>
<g>
</g>
<g>
</g>
<g>
</g>
<g>
</g>
<g>
</g>
<g>
</g>
<g>
</g>
<g>
</g>
<g>
</g>
</svg>
