<?xml version="1.0" encoding="iso-8859-1"?>
<!-- Generator: Adobe Illustrator 19.0.0, SVG Export Plug-In . SVG Version: 6.00 Build 0)  -->
<svg xmlns="http://www.w3.org/2000/svg" xmlns:xlink="http://www.w3.org/1999/xlink" version="1.1" id="Capa_1" x="0px" y="0px" viewBox="0 0 512 512" style="enable-background:new 0 0 512 512;" xml:space="preserve">
<g>
	<g>
		<g>
			<path fill="#0082b7" d="M256,373.333c0-76.458,62.208-138.667,138.667-138.667c20.563,0,40.552,4.552,59.417,13.531     c3.323,1.563,7.198,1.333,10.281-0.615c3.094-1.958,4.969-5.365,4.969-9.021V106.667c0-23.531-19.135-42.667-42.667-42.667     h-198.25l-39.542-39.542c-2-2-4.708-3.125-7.542-3.125H42.667C19.135,21.333,0,40.469,0,64v298.667     c0,23.531,19.135,42.667,42.667,42.667h204.365c3.094,0,6.031-1.344,8.063-3.677c2.021-2.333,2.938-5.438,2.5-8.5     C256.51,385.573,256,379.271,256,373.333z"/>
			<path d="M394.667,256c-64.698,0-117.333,52.635-117.333,117.333s52.635,117.333,117.333,117.333S512,438.031,512,373.333     S459.365,256,394.667,256z M394.667,448C353.5,448,320,414.5,320,373.333c0-12.813,3.543-24.698,9.254-35.246l100.659,100.659     C419.365,444.457,407.479,448,394.667,448z M460.079,408.579L359.421,307.921c10.548-5.711,22.434-9.254,35.246-9.254     c41.167,0,74.667,33.5,74.667,74.667C469.333,386.146,465.79,398.031,460.079,408.579z"/>
		</g>
	</g>
</g>
<g>
</g>
<g>
</g>
<g>
</g>
<g>
</g>
<g>
</g>
<g>
</g>
<g>
</g>
<g>
</g>
<g>
</g>
<g>
</g>
<g>
</g>
<g>
</g>
<g>
</g>
<g>
</g>
<g>
</g>
</svg>
