<?xml version="1.0" encoding="iso-8859-1"?>
<!-- Generator: Adobe Illustrator 19.0.0, SVG Export Plug-In . SVG Version: 6.00 Build 0)  -->
<svg xmlns="http://www.w3.org/2000/svg" xmlns:xlink="http://www.w3.org/1999/xlink" version="1.1" id="Capa_1" x="0px" y="0px" viewBox="0 0 512 512" style="enable-background:new 0 0 512 512;" xml:space="preserve">
<g>
	<g>
		<g>
			<path fill="#0082b7" d="M458.667,256c5.896,0,10.667-4.771,10.667-10.667V106.667c0-23.531-19.146-42.667-42.667-42.667h-198.25l-39.542-39.542     c-2-2-4.708-3.125-7.542-3.125H42.667C19.146,21.333,0,40.469,0,64v298.667c0,23.531,19.146,42.667,42.667,42.667H224     c5.896,0,10.667-4.771,10.667-10.667V288c0-17.646,14.354-32,32-32H458.667z"/>
			<circle cx="362.667" cy="341.333" r="21.333"/>
			<path d="M501.333,277.333H266.667c-5.896,0-10.667,4.771-10.667,10.667v192c0,5.896,4.771,10.667,10.667,10.667h234.667     c5.896,0,10.667-4.771,10.667-10.667V288C512,282.104,507.229,277.333,501.333,277.333z M490.667,400.917l-56.458-56.458     c-4.167-4.167-10.917-4.167-15.083,0l-33.833,33.833c-4.167,4.167-4.167,10.917,0,15.083l10.667,10.667     c2.01,2.021,3.125,4.698,3.125,7.542s-1.115,5.521-3.125,7.542c-4.042,4.021-11.042,4.021-15.083,0l-42.667-42.667     c-4.167-4.167-10.917-4.167-15.083,0l-45.792,45.792V298.667h213.333V400.917z"/>
		</g>
	</g>
</g>
<g>
</g>
<g>
</g>
<g>
</g>
<g>
</g>
<g>
</g>
<g>
</g>
<g>
</g>
<g>
</g>
<g>
</g>
<g>
</g>
<g>
</g>
<g>
</g>
<g>
</g>
<g>
</g>
<g>
</g>
</svg>
