<?xml version="1.0" encoding="iso-8859-1"?>
<!-- Generator: Adobe Illustrator 19.0.0, SVG Export Plug-In . SVG Version: 6.00 Build 0)  -->
<svg xmlns="http://www.w3.org/2000/svg" xmlns:xlink="http://www.w3.org/1999/xlink" version="1.1" id="Capa_1" x="0px" y="0px" viewBox="0 0 511.997 511.997" style="enable-background:new 0 0 511.997 511.997;" xml:space="preserve">
<g>
	<g>
		<g>
			<path d="M508.872,478.706L33.292,3.124c-4.167-4.165-10.919-4.165-15.086,0L3.125,18.206c-4.167,4.165-4.167,10.919,0,15.085     l88.207,88.208c-42.116,33.328-73.954,78.762-90.823,131.24c-0.677,2.115-0.677,4.406,0,6.521     c36.281,112.896,138.958,188.74,255.49,188.74c45.581,0,89.41-11.549,128.546-33.288l94.161,94.161     c4.167,4.165,10.919,4.165,15.086,0l15.081-15.082C513.039,489.626,513.039,482.872,508.872,478.706z M255.999,405.333     c-82.344,0-149.333-66.99-149.333-149.333c0-32.414,10.659-63.681,29.859-89.309l46.375,46.376     c-7.676,12.887-12.234,27.445-12.234,42.932c0,47.052,38.281,85.333,85.333,85.333c15.487,0,30.046-4.559,42.932-12.234     l46.375,46.375C319.678,394.674,288.413,405.333,255.999,405.333z"/>
			<path d="M246.999,177.281c-1.677,3.99-0.771,8.615,2.292,11.677l73.75,73.75c2.042,2.042,4.771,3.125,7.542,3.125     c1.396,0,2.802-0.271,4.135-0.833c4-1.688,6.583-5.615,6.531-9.958c-0.531-46.74-37.552-83.76-84.292-84.292     C252.707,171.208,248.686,173.281,246.999,177.281z"/>
			<path d="M179.613,119.281c3.198,3.208,8.083,4.021,12.146,2.083c20.375-9.75,41.99-14.698,64.24-14.698     c82.344,0,149.333,66.99,149.333,149.333c0,22.25-4.948,43.865-14.698,64.24c-1.948,4.083-1.115,8.948,2.083,12.146     l36.969,36.969c2,2,4.708,3.125,7.542,3.125c0.01,0,0.021,0,0.021,0c2.844-0.01,5.563-1.146,7.563-3.156     c30.313-30.615,53.375-68.677,66.677-110.063c0.677-2.115,0.677-4.406,0-6.521c-36.281-112.896-138.958-188.74-255.49-188.74     c-31.979,0-63.406,5.687-93.417,16.917c-3.396,1.271-5.917,4.177-6.688,7.729c-0.771,3.542,0.323,7.24,2.885,9.802     L179.613,119.281z"/>
		</g>
	</g>
</g>
<g>
</g>
<g>
</g>
<g>
</g>
<g>
</g>
<g>
</g>
<g>
</g>
<g>
</g>
<g>
</g>
<g>
</g>
<g>
</g>
<g>
</g>
<g>
</g>
<g>
</g>
<g>
</g>
<g>
</g>
</svg>
