<svg id="Capa_1" enable-background="new 0 0 488.471 488.471" height="512" viewBox="0 0 488.471 488.471" width="512" xmlns="http://www.w3.org/2000/svg"><path d="m457.941 61.059h-427.412c-16.859 0-30.529 13.67-30.529 30.529v305.294c0 16.86 13.67 30.529 30.529 30.529h427.412c16.86 0 30.529-13.67 30.529-30.529v-305.294c.001-16.859-13.669-30.529-30.529-30.529zm-396.882 61.059h366.353v213.706l-122.118-122.118-152.647 152.647h-91.588z"/><path d="m200.293 166.06c17.884 17.884 17.884 46.879 0 64.763s-46.879 17.884-64.763 0-17.884-46.879 0-64.763 46.879-17.884 64.763 0"/></svg>