<?xml version="1.0" encoding="iso-8859-1"?>
<!-- Generator: Adobe Illustrator 19.0.0, SVG Export Plug-In . SVG Version: 6.00 Build 0)  -->
<svg xmlns="http://www.w3.org/2000/svg" xmlns:xlink="http://www.w3.org/1999/xlink" version="1.1" id="Capa_1" x="0px" y="0px" viewBox="0 0 512 512" style="enable-background:new 0 0 512 512;" xml:space="preserve">
<g>
	<g>
		<g>
			<path fill="#888" d="M358.938,106.344c-8.813-1.542-15.771-8.51-17.292-17.354c-1-5.813-6.646-9.708-12.333-8.698     c-5.813,1-9.708,6.521-8.708,12.323c3.063,17.698,17,31.667,34.667,34.75c0.625,0.104,1.229,0.156,1.854,0.156     c5.083,0,9.583-3.646,10.479-8.833C368.625,112.885,364.75,107.354,358.938,106.344z"/>
			<path fill="#888" d="M106.667,490.667c-11.771,0-21.333-9.573-21.333-21.333c0-5.896-4.771-10.667-10.667-10.667     c-5.896,0-10.667,4.771-10.667,10.667C64,492.865,83.146,512,106.667,512c5.896,0,10.667-4.771,10.667-10.667     C117.333,495.438,112.563,490.667,106.667,490.667z"/>
			<path fill="#888" d="M437.333,458.667c-5.896,0-10.667,4.771-10.667,10.667c0,11.76-9.563,21.333-21.333,21.333     c-5.896,0-10.667,4.771-10.667,10.667c0,5.896,4.771,10.667,10.667,10.667C428.854,512,448,492.865,448,469.333     C448,463.438,443.229,458.667,437.333,458.667z"/>
			<path fill="#888" d="M224,490.667h-53.333c-5.896,0-10.667,4.771-10.667,10.667c0,5.896,4.771,10.667,10.667,10.667H224     c5.896,0,10.667-4.771,10.667-10.667C234.667,495.438,229.896,490.667,224,490.667z"/>
			<path fill="#888" d="M341.333,490.667H288c-5.896,0-10.667,4.771-10.667,10.667c0,5.896,4.771,10.667,10.667,10.667h53.333     c5.896,0,10.667-4.771,10.667-10.667C352,495.438,347.229,490.667,341.333,490.667z"/>
			<path fill="#888" d="M106.667,0C83.146,0,64,19.135,64,42.667c0,5.896,4.771,10.667,10.667,10.667c5.896,0,10.667-4.771,10.667-10.667     c0-11.76,9.563-21.333,21.333-21.333c5.896,0,10.667-4.771,10.667-10.667C117.333,4.771,112.563,0,106.667,0z"/>
			<path fill="#888" d="M224,0h-53.333C164.771,0,160,4.771,160,10.667c0,5.896,4.771,10.667,10.667,10.667H224     c5.896,0,10.667-4.771,10.667-10.667C234.667,4.771,229.896,0,224,0z"/>
			<path fill="#888" d="M288,21.333h32V32c0,5.896,4.771,10.667,10.667,10.667c4.842,0,8.763-3.28,10.068-7.697     c1.581,0.858,3.263,1.447,5.016,1.447c2.729,0,5.458-1.042,7.542-3.125c4.167-4.167,4.167-10.917,0-15.083l-15.07-15.07     c-0.987-0.99-2.169-1.775-3.482-2.318C333.436,0.281,332.055,0,330.667,0H288c-5.896,0-10.667,4.771-10.667,10.667     C277.333,16.563,282.104,21.333,288,21.333z"/>
			<path fill="#888" d="M74.667,128c5.896,0,10.667-4.771,10.667-10.667V96c0-5.896-4.771-10.667-10.667-10.667C68.771,85.333,64,90.104,64,96     v21.333C64,123.229,68.771,128,74.667,128z"/>
			<path fill="#888" d="M74.667,341.333c5.896,0,10.667-4.771,10.667-10.667V288c0-5.896-4.771-10.667-10.667-10.667     C68.771,277.333,64,282.104,64,288v42.667C64,336.563,68.771,341.333,74.667,341.333z"/>
			<path fill="#888" d="M74.667,234.667c5.896,0,10.667-4.771,10.667-10.667v-42.667c0-5.896-4.771-10.667-10.667-10.667     c-5.896,0-10.667,4.771-10.667,10.667V224C64,229.896,68.771,234.667,74.667,234.667z"/>
			<path fill="#888" d="M74.667,426.667c5.896,0,10.667-4.771,10.667-10.667v-21.333c0-5.896-4.771-10.667-10.667-10.667     C68.771,384,64,388.771,64,394.667V416C64,421.896,68.771,426.667,74.667,426.667z"/>
			<path fill="#888" d="M437.333,187.073c-5.896,0-10.667,4.771-10.667,10.667v39.385c0,5.896,4.771,10.667,10.667,10.667     c5.896,0,10.667-4.771,10.667-10.667V197.74C448,191.844,443.229,187.073,437.333,187.073z"/>
			<path fill="#888" d="M437.333,285.531c-5.896,0-10.667,4.771-10.667,10.667v39.385c0,5.896,4.771,10.667,10.667,10.667     c5.896,0,10.667-4.771,10.667-10.667v-39.385C448,290.302,443.229,285.531,437.333,285.531z"/>
			<path fill="#888" d="M437.333,384c-5.896,0-10.667,4.771-10.667,10.667V416c0,5.896,4.771,10.667,10.667,10.667     c5.896,0,10.667-4.771,10.667-10.667v-21.333C448,388.771,443.229,384,437.333,384z"/>
			<path fill="#888" d="M401.104,66.021l-19.125-19.125c-4.167-4.167-10.917-4.167-15.083,0c-4.167,4.167-4.167,10.917,0,15.083l19.125,19.125     c2.083,2.083,4.813,3.125,7.542,3.125c2.729,0,5.458-1.042,7.542-3.125C405.271,76.938,405.271,70.188,401.104,66.021z"/>
			<path fill="#888" d="M447.18,113.26c-0.543-1.313-1.328-2.495-2.318-3.482l-15.07-15.07c-4.167-4.167-10.917-4.167-15.083,0     c-3.421,3.421-3.874,8.513-1.678,12.557c-4.417,1.305-7.697,5.225-7.697,10.068c0,5.896,4.771,10.667,10.667,10.667h10.667     v10.667c0,5.896,4.771,10.667,10.667,10.667c5.896,0,10.667-4.771,10.667-10.667v-21.333     C448,115.945,447.719,114.564,447.18,113.26z"/>
		</g>
	</g>
</g>
<g>
</g>
<g>
</g>
<g>
</g>
<g>
</g>
<g>
</g>
<g>
</g>
<g>
</g>
<g>
</g>
<g>
</g>
<g>
</g>
<g>
</g>
<g>
</g>
<g>
</g>
<g>
</g>
<g>
</g>
</svg>
