<?xml version="1.0" encoding="iso-8859-1"?>
<!-- Generator: Adobe Illustrator 19.0.0, SVG Export Plug-In . SVG Version: 6.00 Build 0)  -->
<svg xmlns="http://www.w3.org/2000/svg" xmlns:xlink="http://www.w3.org/1999/xlink" version="1.1" id="Capa_1" x="0px" y="0px" viewBox="0 0 512 512" style="enable-background:new 0 0 512 512;" xml:space="preserve">
<g>
	<g>
		<path d="M469.333,149.333H42.667C19.135,149.333,0,168.469,0,192v128c0,23.531,19.135,42.667,42.667,42.667h426.667    C492.865,362.667,512,343.531,512,320V192C512,168.469,492.865,149.333,469.333,149.333z M129.042,262.76    c5.104,2.948,6.854,9.469,3.906,14.573c-1.979,3.427-5.563,5.333-9.25,5.333c-1.813,0-3.646-0.458-5.323-1.427l-11.708-6.76V288    c0,5.896-4.771,10.667-10.667,10.667S85.333,293.896,85.333,288v-13.521l-11.708,6.76c-1.677,0.969-3.51,1.427-5.323,1.427    c-3.688,0-7.271-1.906-9.25-5.333c-2.948-5.104-1.198-11.625,3.906-14.573L74.665,256l-11.707-6.76    c-5.104-2.948-6.854-9.469-3.906-14.573c2.948-5.125,9.479-6.844,14.573-3.906l11.708,6.76V224    c0-5.896,4.771-10.667,10.667-10.667s10.667,4.771,10.667,10.667v13.521l11.708-6.76c5.063-2.938,11.615-1.219,14.573,3.906    c2.948,5.104,1.198,11.625-3.906,14.573L117.335,256L129.042,262.76z M235.708,262.76c5.104,2.948,6.854,9.469,3.906,14.573    c-1.979,3.427-5.563,5.333-9.25,5.333c-1.813,0-3.646-0.458-5.323-1.427l-11.708-6.76V288c0,5.896-4.771,10.667-10.667,10.667    c-5.896,0-10.667-4.771-10.667-10.667v-13.521l-11.708,6.76c-1.677,0.969-3.51,1.427-5.323,1.427c-3.688,0-7.271-1.906-9.25-5.333    c-2.948-5.104-1.198-11.625,3.906-14.573l11.707-6.76l-11.707-6.76c-5.104-2.948-6.854-9.469-3.906-14.573    c2.938-5.125,9.469-6.844,14.573-3.906l11.708,6.76V224c0-5.896,4.771-10.667,10.667-10.667c5.896,0,10.667,4.771,10.667,10.667    v13.521l11.708-6.76c5.073-2.938,11.604-1.219,14.573,3.906c2.948,5.104,1.198,11.625-3.906,14.573L224.001,256L235.708,262.76z     M342.375,262.76c5.104,2.948,6.854,9.469,3.906,14.573c-1.979,3.427-5.563,5.333-9.25,5.333c-1.813,0-3.646-0.458-5.323-1.427    L320,274.479V288c0,5.896-4.771,10.667-10.667,10.667c-5.896,0-10.667-4.771-10.667-10.667v-13.521l-11.708,6.76    c-1.677,0.969-3.51,1.427-5.323,1.427c-3.688,0-7.271-1.906-9.25-5.333c-2.948-5.104-1.198-11.625,3.906-14.573l11.707-6.76    l-11.707-6.76c-5.104-2.948-6.854-9.469-3.906-14.573c2.948-5.125,9.479-6.844,14.573-3.906l11.708,6.76V224    c0-5.896,4.771-10.667,10.667-10.667c5.896,0,10.667,4.771,10.667,10.667v13.521l11.708-6.76    c5.063-2.938,11.615-1.219,14.573,3.906c2.948,5.104,1.198,11.625-3.906,14.573L330.668,256L342.375,262.76z M449.042,262.76    c5.104,2.948,6.854,9.469,3.906,14.573c-1.979,3.427-5.563,5.333-9.25,5.333c-1.813,0-3.646-0.458-5.323-1.427l-11.708-6.76V288    c0,5.896-4.771,10.667-10.667,10.667c-5.896,0-10.667-4.771-10.667-10.667v-13.521l-11.708,6.76    c-1.677,0.969-3.51,1.427-5.323,1.427c-3.688,0-7.271-1.906-9.25-5.333c-2.948-5.104-1.198-11.625,3.906-14.573l11.707-6.76    l-11.707-6.76c-5.104-2.948-6.854-9.469-3.906-14.573c2.958-5.125,9.458-6.844,14.573-3.906l11.708,6.76V224    c0-5.896,4.771-10.667,10.667-10.667c5.896,0,10.667,4.771,10.667,10.667v13.521l11.708-6.76    c5.073-2.938,11.625-1.219,14.573,3.906c2.948,5.104,1.198,11.625-3.906,14.573L437.335,256L449.042,262.76z"/>
	</g>
</g>
<g>
</g>
<g>
</g>
<g>
</g>
<g>
</g>
<g>
</g>
<g>
</g>
<g>
</g>
<g>
</g>
<g>
</g>
<g>
</g>
<g>
</g>
<g>
</g>
<g>
</g>
<g>
</g>
<g>
</g>
</svg>
