<?xml version="1.0" encoding="iso-8859-1"?>
<!-- Generator: Adobe Illustrator 19.0.0, SVG Export Plug-In . SVG Version: 6.00 Build 0)  -->
<svg xmlns="http://www.w3.org/2000/svg" xmlns:xlink="http://www.w3.org/1999/xlink" version="1.1" id="Capa_1" x="0px" y="0px" viewBox="0 0 512 512" style="enable-background:new 0 0 512 512;" xml:space="preserve">
<g>
	<g>
		<path d="M256,0C114.844,0,0,114.844,0,256s114.844,256,256,256s256-114.844,256-256S397.156,0,256,0z M234.667,74.667    c0-5.896,4.771-10.667,10.667-10.667h21.333c5.896,0,10.667,4.771,10.667,10.667v170.667c0,5.896-4.771,10.667-10.667,10.667    h-21.333c-5.896,0-10.667-4.771-10.667-10.667V74.667z M225.941,402.38c-58.585-11.494-105.59-59.003-116.582-117.682    c-13.805-73.682,26.938-140.184,88.759-166.276c7.191-3.035,15.215,1.919,15.215,9.725v23.69c0,4.012-2.348,7.518-5.915,9.353    c-34.427,17.706-58.085,53.508-58.085,94.81c0,66.336,60.882,118.732,129.701,104.24c41.665-8.775,74.738-43.385,81.995-85.341    c8.484-49.044-16.84-93.316-56.402-113.685c-3.591-1.849-5.96-5.391-5.96-9.43v-23.612c0-7.766,7.984-12.797,15.142-9.781    c53.708,22.635,91.525,75.762,91.525,137.609C405.333,348.173,321.395,421.108,225.941,402.38z"/>
	</g>
</g>
<g>
</g>
<g>
</g>
<g>
</g>
<g>
</g>
<g>
</g>
<g>
</g>
<g>
</g>
<g>
</g>
<g>
</g>
<g>
</g>
<g>
</g>
<g>
</g>
<g>
</g>
<g>
</g>
<g>
</g>
</svg>
