<?xml version="1.0" encoding="iso-8859-1"?>
<!-- Generator: Adobe Illustrator 19.0.0, SVG Export Plug-In . SVG Version: 6.00 Build 0)  -->
<svg xmlns="http://www.w3.org/2000/svg" xmlns:xlink="http://www.w3.org/1999/xlink" version="1.1" id="Capa_1" x="0px" y="0px" viewBox="0 0 512 512" style="enable-background:new 0 0 512 512;" xml:space="preserve">
<g>
	<g>
		<path d="M507.333,424.604c0,0,0,0-0.01-0.01C473.238,354.677,416.1,255.51,365.692,168.021    c-26.376-45.792-51.294-89.031-69.305-121.896c-8.5-15.521-23.605-24.792-40.398-24.792s-31.897,9.271-40.397,24.792    c-18.022,32.885-42.95,76.167-69.357,121.99C95.858,255.583,38.741,354.708,4.667,424.604C1.573,430.969,0,437.708,0,444.615    c0,25.396,20.511,46.052,45.731,46.052L256,490.646l210.269,0.021c25.22,0,45.731-20.656,45.731-46.052    C512,437.708,510.427,430.969,507.333,424.604z M256,448.01c-11.76,0-21.333-9.573-21.333-21.333    c0-11.76,9.573-21.333,21.333-21.333s21.333,9.573,21.333,21.333C277.333,438.437,267.76,448.01,256,448.01z M277.333,373.344    c0,5.896-4.771,10.667-10.667,10.667h-21.333c-5.896,0-10.667-4.771-10.667-10.667V138.677c0-5.896,4.771-10.667,10.667-10.667    h21.333c5.896,0,10.667,4.771,10.667,10.667V373.344z"/>
	</g>
</g>
<g>
</g>
<g>
</g>
<g>
</g>
<g>
</g>
<g>
</g>
<g>
</g>
<g>
</g>
<g>
</g>
<g>
</g>
<g>
</g>
<g>
</g>
<g>
</g>
<g>
</g>
<g>
</g>
<g>
</g>
</svg>
